<?xml version="1.0" encoding="UTF-8" standalone="yes"?>
<svg width="100%" height="100%" viewBox="0 0 1000 1000" version="1.2" xml:space="preserve" fill-rule="evenodd" stroke-linejoin="round" stroke-miterlimit="2" baseProfile="tiny-ps" xmlns="http://www.w3.org/2000/svg">
  <title>bimi-svg-tiny-12-ps</title>
  <g id="dark-icon">
    <g>
      <g>
        <path d="M1000,200C1000,89.617 910.383,0 800,0L200,0C89.617,0 0,89.617 0,200L0,800C0,910.383 89.617,1000 200,1000L800,1000C910.383,1000 1000,910.383 1000,800L1000,200Z"/>
        <g transform="matrix(1.88841,0,0,1.88841,506.441,341.61)">
          <g>
            <g>
              <g>
                <path d="M0,167.377C0.313,165.98 0.569,164.842 0.843,163.619C0.087,164.306 -0.552,164.885 -1.19,165.464C-0.845,166.019 -0.506,166.565 0,167.377M3.068,90.357C1.209,89.656 -0.343,89.07 -1.954,88.462C-2.102,89.122 -2.248,89.776 -2.378,90.357L3.068,90.357ZM-8.846,178.18C-8.912,178.204 -8.978,178.228 -9.044,178.251C-8.473,180.234 -7.902,182.217 -7.332,184.199C-6.759,183.39 -6.406,182.594 -6.128,181.773C-6.068,181.597 -6.228,181.288 -6.374,181.11C-7.183,180.122 -8.019,179.154 -8.846,178.18M5.44,253.902C3.855,252.908 2.535,252.08 1.05,251.148C0.738,252.118 0.456,252.997 0.165,253.902L5.44,253.902ZM-31.137,253.575C-31.09,253.716 -31.043,253.857 -30.996,253.999C-29.729,253.717 -28.443,253.495 -27.208,253.107C-26.914,253.015 -26.539,252.122 -26.636,252.023C-26.993,251.658 -27.573,251.203 -27.997,251.267C-29.404,251.478 -30.419,252.366 -31.137,253.575M-13.167,86.655C-13.199,86.751 -13.231,86.847 -13.263,86.943C-11.581,87.713 -9.898,88.483 -8.143,89.286L-8.143,86.655L-13.167,86.655ZM2.12,85.8C3.212,86.32 4.401,86.909 5.614,87.441C5.834,87.538 6.312,87.5 6.408,87.352C7.236,86.079 8.004,84.767 8.698,83.618C6.521,84.34 4.275,85.085 2.12,85.8M2.804,97.567C0.985,98.496 -1.194,97.827 -2.346,99.82C-0.83,100.435 0.519,100.981 2.001,101.582C2.261,100.28 2.502,99.075 2.804,97.567M78.951,-0.737C79.091,-0.741 79.231,-0.745 79.371,-0.749C79.865,-7.159 80.358,-13.569 80.852,-19.98C80.711,-19.99 80.57,-20 80.43,-20.011C78.285,-13.706 78.332,-7.243 78.951,-0.737M0.22,81.94C1.641,81.415 2.82,81.144 3.824,80.568C5.121,79.824 6.374,78.939 7.462,77.919C8.192,77.234 8.092,76.185 7.371,75.428C6.656,74.678 5.86,74.937 5.109,75.486C2.929,77.082 1.453,79.207 0.22,81.94M-2.9,167.204C-7.139,171.003 -7.587,175.389 -4.573,178.557C-3.431,175.878 -2.305,173.261 -1.21,170.632C-1.106,170.383 -1.087,169.99 -1.215,169.774C-1.735,168.898 -2.327,168.065 -2.9,167.204M-0.17,138.358C-0.259,138.423 -0.347,138.488 -0.435,138.554C2.198,143.466 4.013,148.667 5.225,154.143C5.748,153.389 6.217,152.648 6.521,151.846C7.564,149.094 8.308,146.203 6.054,143.783C4.188,141.779 1.919,140.152 -0.17,138.358M-10.639,170.359C-9.457,167.757 -7.837,165.79 -5.799,164.165C-5.2,163.687 -5.389,163.238 -5.751,162.687C-6.877,160.969 -7.954,159.218 -9.04,157.475C-9.53,156.688 -9.997,155.886 -10.601,154.879C-11.835,160.143 -11.459,165.118 -10.639,170.359M-83.6,-66.967C-83.743,-66.944 -83.887,-66.922 -84.031,-66.899C-83.714,-59.152 -83.397,-51.405 -83.08,-43.659C-82.96,-43.648 -82.841,-43.639 -82.722,-43.628C-82.068,-45.963 -81.33,-48.279 -80.78,-50.638C-80.055,-53.748 -79.729,-56.924 -80.781,-60.015C-81.586,-62.378 -82.65,-64.653 -83.6,-66.967M-12.947,119.713C-10.703,115.83 -7.351,103.909 -7.943,101.961C-8.112,102.054 -8.296,102.113 -8.423,102.231C-9.677,103.406 -11.055,104.484 -12.128,105.807C-13.013,106.897 -13.872,108.211 -14.152,109.55C-14.868,112.97 -14.254,116.332 -12.947,119.713M-4.143,103.764C-4.244,104.161 -4.306,104.373 -4.353,104.588C-4.864,106.918 -5.109,109.348 -5.942,111.556C-7.325,115.221 -9.066,118.752 -10.702,122.319C-11.007,122.983 -11.117,123.491 -10.568,124.067C-9.543,125.144 -8.566,126.266 -7.549,127.35C-7.429,127.477 -7.185,127.487 -6.869,127.596C-7.645,124.3 -7.904,121.117 -6.577,118.083C-5.588,115.821 -4.346,113.666 -3.153,111.498C-2.098,109.579 -0.956,107.709 0.167,105.785C-1.332,105.082 -2.666,104.457 -4.143,103.764M7.486,191.025C6.891,185.385 4.528,179.905 1.528,174.339C0.458,176.978 -0.531,179.388 -1.48,181.814C-1.566,182.032 -1.496,182.452 -1.333,182.607C1.661,185.496 4.681,188.357 7.486,191.025M-78.566,27.101C-78.724,27.143 -78.882,27.184 -79.04,27.226C-79.04,28.944 -79.004,30.664 -79.051,32.381C-79.086,33.674 -79.237,34.964 -79.318,36.256C-79.502,39.219 -79.774,42.187 -79.007,45.117C-78.194,48.22 -75.031,50.251 -71.816,49.624C-75.322,42.488 -77.168,34.863 -78.566,27.101M-82.737,1.237C-82.737,-1.389 -82.625,-3.874 -82.762,-6.346C-82.988,-10.405 -83.421,-14.453 -83.678,-18.511C-83.876,-21.632 -83.934,-24.763 -84.065,-27.888C-84.077,-28.165 -84.168,-28.439 -84.271,-28.963C-84.469,-28.529 -84.603,-28.342 -84.639,-28.139C-85.178,-25.114 -85.786,-22.098 -86.213,-19.057C-86.805,-14.843 -86.875,-10.607 -85.992,-6.418C-85.418,-3.691 -84.28,-1.177 -82.737,1.237M-11.825,145.119C-10.43,141.253 -8.346,138.081 -5.928,135.11C-5.407,134.47 -5.737,133.97 -6.237,133.541C-6.932,132.944 -7.655,132.382 -8.359,131.797C-9.834,130.571 -11.305,129.339 -12.798,128.093C-14.257,131.456 -14.023,139.289 -11.825,145.119M-63.479,56.712C-58.195,65.871 -43.237,77.859 -37.885,77.538C-38.017,77.394 -38.098,77.269 -38.211,77.188C-42.975,73.741 -47.45,69.955 -51.647,65.837C-53.277,64.238 -54.813,62.504 -56.619,61.131C-58.778,59.49 -61.181,58.171 -63.479,56.712M60.199,58.177C74.766,47.641 79.008,32.045 78.797,20.912C76.876,27.65 74.045,34.002 70.903,40.247C67.763,46.487 64.243,52.481 60.199,58.177M-2.568,130.914C-0.45,127.96 1.538,125.267 3.437,122.514C4.607,120.818 5.558,119.014 5.995,116.941C6.638,113.893 6.028,111.201 4.119,108.606C-1.415,115.059 -3.684,122.32 -2.568,130.914M-12.092,255.148C-9.545,254.811 -7.113,254.34 -4.662,254.201C-1.542,254.024 -1.569,254.126 -0.366,251.243C-0.076,250.548 -0.24,250.276 -0.777,249.855C-2.661,248.375 -4.57,246.911 -6.312,245.274C-7.802,243.874 -9.075,242.245 -10.495,240.66C-12.714,245.31 -12.536,250.221 -12.092,255.148M-60.321,8.776C-59.1,11.803 -57.868,14.819 -55.376,17.133C-52.579,19.73 -50.381,19.916 -47.352,18.152C-45.077,16.828 -44.489,14.79 -46.004,12.646C-46.996,11.244 -48.292,9.992 -49.652,8.929C-52.689,6.554 -57.005,6.548 -60.321,8.776M-4.197,139.873C-4.479,140.195 -4.642,140.316 -4.718,140.478C-6.298,143.812 -7.878,147.146 -9.423,150.496C-9.542,150.753 -9.507,151.186 -9.368,151.441C-7.438,154.975 -5.477,158.492 -3.444,162.157C-2.004,160.954 -0.727,159.94 0.477,158.843C0.779,158.568 1.034,158.011 0.99,157.619C0.296,151.471 -2.211,145.854 -4.197,139.873M9.968,89.466C10.184,89.6 10.275,89.698 10.377,89.711C10.643,89.744 10.913,89.754 11.18,89.746C15.878,89.605 20.181,88.017 24.124,85.662C27.34,83.741 30.302,81.375 33.277,79.076C34.826,77.879 36.159,76.402 37.589,75.051C35.129,75.398 32.813,75.956 30.506,76.543C25.361,77.853 20.291,79.335 15.896,82.502C13.358,84.331 11.174,86.43 9.968,89.466M3.531,223.14C3.191,223.454 2.893,223.682 2.653,223.959C-0.612,227.73 -3.853,231.522 -7.144,235.27C-7.691,235.894 -7.664,236.406 -7.23,236.975C-6.353,238.122 -5.526,239.325 -4.528,240.361C-2.639,242.323 -0.645,244.185 1.421,246.199C4.576,238.584 6.576,231.155 3.531,223.14M7.046,202.301C6.97,202.278 6.895,202.255 6.818,202.232C6.986,201.537 7.131,200.835 7.327,200.148C7.918,198.076 7.765,196.263 6.061,194.646C3.789,192.488 1.664,190.176 -0.509,187.915C-1.266,187.127 -1.975,186.294 -2.835,185.338C-3.429,187.096 -4.013,188.628 -4.445,190.202C-4.623,190.849 -4.661,191.649 -4.446,192.271C-2.061,199.181 0.377,206.073 2.822,212.963C3.49,214.846 4.229,216.703 4.947,218.599C11.564,213.47 13.305,202.934 8.399,198.133C7.949,199.522 7.498,200.911 7.046,202.301M-6.233,196.628C-6.379,196.768 -6.464,196.81 -6.477,196.867C-7.662,202.282 -8.918,207.683 -9.999,213.118C-10.995,218.132 -11.112,223.209 -10.348,228.27C-10.083,230.023 -9.501,231.727 -9.039,233.553C-7.207,231.496 -5.633,229.632 -3.953,227.868C-1.943,225.758 0.134,223.709 2.234,221.688C2.796,221.147 2.865,220.702 2.597,220.005C0.08,213.463 -2.41,206.911 -4.897,200.358C-5.361,199.138 -5.779,197.9 -6.233,196.628M-42.829,48.425C-42.754,51.835 -42.473,55.164 -41.376,58.347C-39.685,63.257 -37.817,67.906 -33.238,71.194C-26.509,76.025 -19.141,79.342 -11.371,81.939C-10.608,82.194 -9.782,82.257 -8.649,82.472C-9.154,81.468 -9.446,80.731 -9.867,80.076C-12.155,76.516 -15.259,74.019 -19.341,72.734C-22.309,71.801 -25.047,70.428 -27.348,68.244C-29.642,66.067 -31.072,63.343 -32.538,60.611C-33.978,57.927 -35.452,55.252 -37.084,52.682C-38.418,50.582 -40.362,49.134 -42.829,48.425M-4.899,273.802C-10.701,270.984 -12.573,265.586 -13.7,259.775C-17.052,260.716 -20.236,261.614 -23.423,262.502C-26.812,263.445 -30.137,264.542 -33.155,266.41C-33.615,266.695 -33.787,266.962 -33.705,267.598C-33.24,271.202 -32.373,274.696 -31.081,278.087C-29.884,281.229 -27.99,283.866 -25.286,285.878C-21.087,289.001 -16.305,289.392 -11.33,288.741C-5.956,288.039 -0.984,285.962 4.106,284.262C7.668,283.072 11.345,282.215 14.993,281.3C16.939,280.812 18.979,280.665 20.894,280.088C22.813,279.508 24.127,278.171 24.522,276.06C24.979,273.614 24.138,271.48 23.005,269.436C21.469,266.666 19.334,264.353 16.989,262.268C14.639,260.178 12.058,258.201 8.871,257.837C5.675,257.472 2.413,257.689 -0.821,257.683C-0.992,257.683 -1.26,257.95 -1.322,258.146C-2.119,260.631 -2.886,263.126 -3.586,265.38C-3.994,263.067 -3.29,260.537 -2.816,257.636C-5.893,258.168 -8.771,258.666 -11.771,259.186C-10.596,264.761 -10.085,270.365 -4.899,273.802M-70.284,-17.352C-67.391,-9.34 -64.497,-1.329 -61.634,6.596C-59.781,5.791 -58.255,4.91 -56.61,4.456C-52.436,3.302 -49.042,4.879 -46.343,8.008C-44.655,9.966 -43.631,12.234 -43.49,14.949C-43.29,18.804 -46.537,20.872 -49.605,21.129C-54.255,21.519 -56.972,19.07 -58.878,15.249C-59.814,13.372 -60.734,11.485 -61.675,9.577C-66.719,13.35 -69.128,18.471 -69.474,24.596C-69.608,26.978 -69.498,29.387 -69.307,31.769C-69.011,35.44 -66.987,38.14 -64.115,40.285C-61.048,42.576 -57.663,43.703 -53.775,43.631C-51.054,43.581 -48.318,43.972 -45.601,44.269C-44.882,44.347 -44.626,44.227 -44.525,43.538C-43.857,39.002 -42.623,34.616 -40.99,30.339C-40.428,28.867 -39.819,27.413 -39.094,26.014C-39.868,29.143 -40.74,32.252 -41.39,35.407C-42.039,38.558 -42.466,41.754 -42.927,44.546C-40.26,46.127 -37.868,47.377 -35.662,48.898C-32.951,50.767 -31.284,53.519 -29.958,56.49C-28.98,58.681 -28.03,60.891 -26.914,63.012C-25.258,66.16 -22.446,67.78 -19.081,68.634C-15.006,69.668 -11.346,71.48 -8.498,74.672C-7.798,75.457 -7.186,76.32 -6.451,77.252C-5.181,71.779 -2.316,67.243 0.681,62.779C2.569,59.968 5.321,58.357 8.531,57.6C13.632,56.397 18.785,55.409 23.887,54.209C28.532,53.117 32.945,51.395 36.627,48.264C38.075,47.033 39.228,45.456 40.255,44.324C39.955,45.68 38.938,47.172 37.706,48.526C34.033,52.564 29.327,54.543 24.068,55.638C19.165,56.659 14.304,57.92 9.479,59.272C5.086,60.502 2.254,63.672 0.129,67.548C-1.972,71.38 -3.64,75.381 -4.396,79.71C-4.521,80.428 -4.413,81.187 -4.413,81.926C-4.295,81.953 -4.177,81.981 -4.059,82.008C-3.807,81.414 -3.554,80.821 -3.304,80.227C-2.158,77.502 -0.841,74.898 1.367,72.827C3.85,70.498 7.826,70.216 10.509,72.265C12.31,73.641 12.97,76.374 12.102,78.915C11.91,79.478 11.673,80.026 11.457,80.582C13.516,79.384 15.534,78.109 17.64,77.002C22.864,74.257 28.509,72.593 34.076,70.729C37.582,69.555 41.083,68.354 44.522,67.004C45.405,66.658 46.134,65.778 46.788,65.018C49.948,61.349 53.104,57.675 56.173,53.93C58.804,50.719 61.462,47.513 63.844,44.119C67.3,39.193 69.815,33.741 71.96,28.132C74.589,21.258 76.576,14.19 77.88,6.95C78.126,5.587 77.727,4.09 77.528,2.669C76.769,-2.748 76.152,-8.165 77.243,-13.609C77.772,-16.248 78.725,-18.711 80.211,-20.984C80.638,-21.637 80.871,-22.524 80.899,-23.314C81.19,-31.481 79.968,-39.503 78.449,-47.49C77.932,-50.212 77.307,-52.915 76.811,-55.641C76.601,-56.796 76.518,-57.989 76.512,-59.165C76.484,-65.382 76.498,-71.599 76.502,-77.815C76.502,-78.031 76.547,-78.247 76.725,-78.472C76.771,-78.275 76.852,-78.08 76.856,-77.883C76.924,-74.743 76.904,-71.599 77.061,-68.464C77.368,-62.301 78.03,-56.209 79.924,-50.262C81.026,-46.803 81.583,-43.164 82.268,-39.583C82.875,-36.415 83.399,-33.225 83.809,-30.025C84.085,-27.873 84.192,-25.687 84.213,-23.515C84.267,-17.875 84.257,-12.233 84.225,-6.593C84.188,-0.309 83.124,5.832 81.369,11.843C80.748,13.969 80.714,16.026 80.859,18.217C81.093,21.75 80.98,25.31 80.914,28.857C80.83,33.359 79.844,37.691 78.182,41.869C76.558,45.952 74.147,49.553 71.337,52.902C66.053,59.203 59.621,64.115 52.688,68.451C51.704,69.066 51.086,70.244 50.237,71.1C46.957,74.408 43.646,77.688 40.355,80.987C37.105,84.246 33.485,87.053 29.556,89.415C26.75,91.101 23.771,92.505 20.835,93.968C19.06,94.853 17.214,95.596 15.412,96.428C13.998,97.081 12.574,97.503 10.983,97.148C10.406,97.019 9.775,97.127 9.374,97.127C8.667,99.852 7.996,102.436 7.288,105.166C8.159,106.389 9.368,107.829 10.288,109.435C11.988,112.404 11.837,115.555 10.783,118.713C9.585,122.301 7.335,125.229 4.914,128.047C3.502,129.69 2.078,131.322 0.702,132.909C3.145,134.944 5.477,136.958 7.886,138.875C11.252,141.552 12.721,146.965 11.025,151.014C9.854,153.81 8.297,156.378 6.193,158.595C5.933,158.868 5.711,159.319 5.719,159.683C5.801,163.821 4.57,167.642 3.019,171.401C2.865,171.773 2.911,172.36 3.104,172.721C5.767,177.7 7.759,182.907 8.594,188.519C8.695,189.193 8.894,189.898 8.793,190.549C8.5,192.429 9.356,193.745 10.474,195.146C12.751,197.998 14.204,201.231 14.244,204.992C14.288,209.129 12.672,212.638 10.195,215.801C8.926,217.422 7.536,218.955 6.12,220.45C5.504,221.1 5.923,221.627 6.023,222.23C6.375,224.362 6.879,226.488 7.012,228.637C7.293,233.189 6.064,237.551 4.932,241.898C4.531,243.438 3.873,244.913 3.267,246.392C3.03,246.968 2.956,247.298 3.583,247.704C7.768,250.418 11.88,253.246 16.1,255.903C18.841,257.63 21.675,259.227 24.556,260.709C28.499,262.739 30.657,266.088 32.096,270.104C33.117,272.956 34.082,273.449 37.12,273.583C39.511,273.688 41.889,274.074 44.274,274.322C46.275,274.529 48.275,274.831 50.281,274.889C55.308,275.034 60.164,276.078 64.974,277.432C68.213,278.343 71.395,279.387 74.176,281.375C75.296,282.176 76.182,283.125 76.511,284.514C76.867,286.013 76.434,287.57 75.054,288.252C73.06,289.238 70.994,290.198 68.849,290.734C64.987,291.7 61.064,292.47 57.129,293.076C54.424,293.493 51.652,293.454 48.917,293.693C45.737,293.971 42.564,294.331 39.388,294.649C39.046,294.684 38.699,294.678 38.354,294.684C31.807,294.802 25.259,294.925 18.711,295.035C14.115,295.112 9.515,295.321 4.924,295.196C0.279,295.068 -4.359,294.623 -8.996,294.269C-10.056,294.188 -11.101,293.909 -12.165,293.455C-11.272,293.278 -10.387,293.036 -9.486,292.94C-7.745,292.756 -5.997,292.567 -4.249,292.533C1.078,292.43 6.407,292.429 11.734,292.334C21.304,292.164 30.875,292.044 40.44,291.724C44.615,291.583 48.777,291.012 52.942,290.614C58.364,290.096 63.688,289.03 68.953,287.658C69.724,287.457 70.495,287.188 71.202,286.825C72.772,286.022 72.893,284.532 71.388,283.641C69.984,282.811 68.492,282.083 66.961,281.524C62.65,279.951 58.207,278.894 53.612,278.604C49.694,278.356 45.771,278.171 41.849,277.984C39.825,277.888 37.793,277.912 35.774,277.764C33.306,277.583 31.141,276.619 29.52,275.017C28.924,276.642 28.497,278.386 27.679,279.922C25.931,283.208 23.168,285.125 19.356,285.348C14.07,285.656 9.038,287.096 4.03,288.706C-0.027,290.011 -4.1,291.303 -8.235,292.322C-12.825,293.454 -17.484,293.64 -22.095,292.212C-26.699,290.786 -30.08,287.85 -32.508,283.761C-34.782,279.932 -35.945,275.73 -36.547,271.351C-36.653,270.58 -36.766,269.811 -36.903,268.845C-38.661,270.578 -40.375,272.098 -41.884,273.8C-43.978,276.164 -45.733,278.852 -47.962,281.07C-52.818,285.906 -58.402,289.726 -65.284,290.96C-68.025,291.452 -70.911,291.199 -73.729,291.168C-75.903,291.145 -78.087,291.038 -80.242,290.773C-81.536,290.613 -82.88,290.262 -84.033,289.669C-86.014,288.65 -86.334,286.253 -84.672,284.777C-83.375,283.626 -81.903,282.603 -80.361,281.809C-76.559,279.852 -72.679,278.042 -68.812,276.215C-68.144,275.9 -67.381,275.788 -66.663,275.582C-66.619,275.679 -66.575,275.775 -66.531,275.871C-66.895,276.07 -67.259,276.27 -67.625,276.467C-72.329,279.006 -77.046,281.522 -81.722,284.11C-82.388,284.48 -82.944,285.146 -83.394,285.783C-84.259,287.011 -83.949,287.968 -82.503,288.428C-81.497,288.747 -80.423,288.969 -79.372,289.004C-76.88,289.086 -74.373,289.185 -71.892,289.001C-64.439,288.451 -57.558,286.353 -52.166,280.847C-50.494,279.14 -49.139,277.127 -47.592,275.294C-46.681,274.215 -45.684,273.208 -44.711,272.182C-42.822,270.188 -40.924,268.204 -39.029,266.216C-39.002,266.189 -38.977,266.153 -38.943,266.14C-37.179,265.416 -36.954,264.045 -36.885,262.276C-36.804,260.219 -36.144,258.182 -35.713,256.141C-35.613,255.67 -35.423,255.218 -35.277,254.769C-46.086,250.728 -51.684,242.85 -52.843,231.636C-52.193,236.287 -50.387,240.477 -47.365,244.109C-44.012,248.14 -39.766,250.904 -34.82,252.585C-34.551,252.677 -33.983,252.297 -33.739,251.989C-32.608,250.569 -31.412,249.244 -29.71,248.494C-26.825,247.222 -23.098,249.218 -23.373,252.582C-23.485,253.961 -24.363,255.276 -25.857,255.459C-27.689,255.683 -29.563,255.663 -31.413,255.594C-32.079,255.568 -32.351,255.658 -32.596,256.272C-33.454,258.414 -33.923,260.606 -33.811,262.738C-27.272,260.324 -20.78,257.926 -14.243,255.512C-14.243,253.499 -14.251,251.214 -14.241,248.928C-14.226,245.526 -13.502,242.282 -12.146,239.16C-11.94,238.689 -11.943,237.962 -12.16,237.499C-13.622,234.376 -14.248,231.077 -14.445,227.666C-14.559,225.691 -14.83,223.718 -14.822,221.744C-14.813,219.233 -14.642,216.72 -14.45,214.215C-14.285,212.051 -14.069,209.886 -13.743,207.742C-12.82,201.672 -11.297,195.743 -9.205,189.975C-8.648,188.44 -9.276,187.188 -9.733,185.914C-11.665,180.533 -13.669,175.168 -14.374,169.457C-14.756,166.364 -15.154,163.216 -14.969,160.127C-14.776,156.896 -13.878,153.708 -13.329,150.495C-13.247,150.017 -13.262,149.446 -13.446,149.008C-15.561,143.949 -16.911,138.721 -16.525,133.21C-16.368,130.956 -15.657,128.743 -15.27,126.499C-15.183,125.997 -15.223,125.319 -15.498,124.931C-17.642,121.914 -19.041,118.58 -19.431,114.927C-19.786,111.592 -19.672,108.151 -17.691,105.3C-16.479,103.557 -14.629,102.257 -13.06,100.763C-12.896,100.607 -12.697,100.489 -12.452,100.307C-15.233,99.082 -17.822,97.623 -19.781,95.327C-20.886,94.031 -21.746,92.529 -22.764,91.155C-23.786,89.779 -24.845,88.429 -25.928,87.1C-27.248,85.481 -29.208,85.072 -31.07,84.532C-34.281,83.6 -37.58,82.925 -40.714,81.791C-45.015,80.233 -48.767,77.637 -52.352,74.818C-57.614,70.681 -62.096,65.814 -65.875,60.298C-66.78,58.978 -67.556,57.57 -68.458,56.247C-68.665,55.943 -69.168,55.618 -69.498,55.654C-72.271,55.956 -75.044,55.959 -77.795,55.565C-81.865,54.981 -85.068,51.681 -85.595,47.645C-86.133,43.518 -85.752,39.416 -85.152,35.331C-84.49,30.83 -83.657,26.35 -83.123,21.835C-82.748,18.655 -82.432,15.404 -82.704,12.239C-82.859,10.438 -83.946,8.488 -85.145,7.049C-88.326,3.228 -90.688,-0.913 -91.129,-5.911C-91.38,-8.754 -91.356,-11.634 -91.272,-14.491C-91.203,-16.882 -90.885,-19.268 -90.642,-21.652C-90.059,-27.377 -89.063,-32.999 -85.689,-37.852C-84.44,-39.649 -84.899,-41.58 -84.89,-43.469C-84.881,-45.332 -85.188,-47.196 -85.217,-49.061C-85.313,-55.309 -85.565,-61.567 -85.3,-67.801C-85.187,-70.464 -85.962,-72.753 -86.652,-75.137C-88.223,-80.556 -87.743,-85.802 -85.699,-91C-84.302,-94.555 -82.041,-97.492 -79.512,-100.282C-77.156,-102.883 -74.749,-105.454 -72.59,-108.214C-70.378,-111.042 -69.843,-114.468 -70.455,-117.914C-71.03,-121.152 -72.046,-124.312 -72.865,-127.508C-72.898,-127.64 -72.889,-127.783 -72.809,-127.944C-71.011,-124.61 -69.574,-121.152 -69.133,-117.356C-68.732,-113.904 -68.64,-110.461 -70.479,-107.326C-71.186,-106.119 -72.023,-104.956 -72.97,-103.929C-75.097,-101.619 -77.448,-99.509 -79.489,-97.129C-82.176,-93.997 -83.663,-90.243 -84.439,-86.2C-84.958,-83.498 -85.032,-80.799 -84.405,-78.07C-84.027,-79.741 -83.707,-81.427 -83.261,-83.08C-82.181,-87.081 -80.828,-90.977 -77.988,-94.126C-75.651,-96.718 -72.793,-98.294 -69.053,-98.287C-70.602,-97.638 -72.081,-97.18 -73.397,-96.435C-77.001,-94.396 -79.282,-91.179 -80.861,-87.448C-82.235,-84.2 -82.646,-80.708 -83.336,-77.277C-84.024,-73.857 -82.319,-71.223 -81.107,-68.396C-79.531,-64.718 -77.974,-61.06 -77.229,-57.08C-76.574,-53.574 -76.771,-50.146 -77.858,-46.829C-79.055,-43.177 -80.455,-39.579 -81.992,-36.056C-82.703,-34.427 -82.546,-32.85 -82.478,-31.244C-82.387,-29.083 -82.093,-26.933 -81.917,-24.775C-81.59,-20.749 -81.38,-16.711 -80.948,-12.697C-80.329,-6.955 -79.545,-1.231 -78.847,4.502C-78.383,8.312 -78.187,12.173 -77.442,15.926C-76.113,22.632 -74.51,29.287 -72.927,35.941C-71.795,40.7 -70.17,45.301 -67.923,49.66C-67.729,50.037 -67.241,50.427 -66.833,50.502C-62.583,51.284 -58.778,53.134 -55.259,55.516C-51.858,57.818 -48.643,60.395 -45.331,62.831C-44.509,63.435 -43.631,63.962 -42.513,64.701C-42.711,64.096 -42.81,63.76 -42.93,63.433C-44.638,58.782 -45.227,53.962 -45.063,49.037C-45.032,48.136 -45.154,47.676 -46.268,47.638C-48.694,47.556 -51.112,47.243 -53.536,47.074C-57.137,46.823 -60.479,45.688 -63.664,44.08C-65.189,43.309 -66.688,42.436 -68.06,41.423C-70.245,39.81 -71.324,37.471 -71.883,34.863C-73.142,28.99 -72.923,23.236 -70.706,17.585C-69.364,14.165 -67.089,11.479 -64.361,9.149C-62.548,7.601 -62.451,7.669 -63.304,5.543C-66.219,-1.72 -68.181,-9.27 -70.108,-16.831C-70.156,-17.02 -70.135,-17.227 -70.146,-17.425C-70.192,-17.4 -70.238,-17.376 -70.284,-17.352" fill="white" fill-rule="nonzero"/>
              </g>
            </g>
          </g>
        </g>
      </g>
    </g>
  </g>
  <g id="light-icon">
    <g>
      <g>
        <path d="M1000,200C1000,89.617 910.383,0 800,0L200,0C89.617,0 0,89.617 0,200L0,800C0,910.383 89.617,1000 200,1000L800,1000C910.383,1000 1000,910.383 1000,800L1000,200Z"/>
        <g transform="matrix(1.88841,0,0,1.88841,506.441,341.61)">
          <g>
            <g>
              <g>
                <path d="M0,167.377C0.313,165.98 0.569,164.842 0.843,163.619C0.087,164.306 -0.552,164.885 -1.19,165.464C-0.845,166.019 -0.506,166.565 0,167.377M3.068,90.357C1.209,89.656 -0.343,89.07 -1.954,88.462C-2.102,89.122 -2.248,89.776 -2.378,90.357L3.068,90.357ZM-8.846,178.18C-8.912,178.204 -8.978,178.228 -9.044,178.251C-8.473,180.234 -7.902,182.217 -7.332,184.199C-6.759,183.39 -6.406,182.594 -6.128,181.773C-6.068,181.597 -6.228,181.288 -6.374,181.11C-7.183,180.122 -8.019,179.154 -8.846,178.18M5.44,253.902C3.855,252.908 2.535,252.08 1.05,251.148C0.738,252.118 0.456,252.997 0.165,253.902L5.44,253.902ZM-31.137,253.575C-31.09,253.716 -31.043,253.857 -30.996,253.999C-29.729,253.717 -28.443,253.495 -27.208,253.107C-26.914,253.015 -26.539,252.122 -26.636,252.023C-26.993,251.658 -27.573,251.203 -27.997,251.267C-29.404,251.478 -30.419,252.366 -31.137,253.575M-13.167,86.655C-13.199,86.751 -13.231,86.847 -13.263,86.943C-11.581,87.713 -9.898,88.483 -8.143,89.286L-8.143,86.655L-13.167,86.655ZM2.12,85.8C3.212,86.32 4.401,86.909 5.614,87.441C5.834,87.538 6.312,87.5 6.408,87.352C7.236,86.079 8.004,84.767 8.698,83.618C6.521,84.34 4.275,85.085 2.12,85.8M2.804,97.567C0.985,98.496 -1.194,97.827 -2.346,99.82C-0.83,100.435 0.519,100.981 2.001,101.582C2.261,100.28 2.502,99.075 2.804,97.567M78.951,-0.737C79.091,-0.741 79.231,-0.745 79.371,-0.749C79.865,-7.159 80.358,-13.569 80.852,-19.98C80.711,-19.99 80.57,-20 80.43,-20.011C78.285,-13.706 78.332,-7.243 78.951,-0.737M0.22,81.94C1.641,81.415 2.82,81.144 3.824,80.568C5.121,79.824 6.374,78.939 7.462,77.919C8.192,77.234 8.092,76.185 7.371,75.428C6.656,74.678 5.86,74.937 5.109,75.486C2.929,77.082 1.453,79.207 0.22,81.94M-2.9,167.204C-7.139,171.003 -7.587,175.389 -4.573,178.557C-3.431,175.878 -2.305,173.261 -1.21,170.632C-1.106,170.383 -1.087,169.99 -1.215,169.774C-1.735,168.898 -2.327,168.065 -2.9,167.204M-0.17,138.358C-0.259,138.423 -0.347,138.488 -0.435,138.554C2.198,143.466 4.013,148.667 5.225,154.143C5.748,153.389 6.217,152.648 6.521,151.846C7.564,149.094 8.308,146.203 6.054,143.783C4.188,141.779 1.919,140.152 -0.17,138.358M-10.639,170.359C-9.457,167.757 -7.837,165.79 -5.799,164.165C-5.2,163.687 -5.389,163.238 -5.751,162.687C-6.877,160.969 -7.954,159.218 -9.04,157.475C-9.53,156.688 -9.997,155.886 -10.601,154.879C-11.835,160.143 -11.459,165.118 -10.639,170.359M-83.6,-66.967C-83.743,-66.944 -83.887,-66.922 -84.031,-66.899C-83.714,-59.152 -83.397,-51.405 -83.08,-43.659C-82.96,-43.648 -82.841,-43.639 -82.722,-43.628C-82.068,-45.963 -81.33,-48.279 -80.78,-50.638C-80.055,-53.748 -79.729,-56.924 -80.781,-60.015C-81.586,-62.378 -82.65,-64.653 -83.6,-66.967M-12.947,119.713C-10.703,115.83 -7.351,103.909 -7.943,101.961C-8.112,102.054 -8.296,102.113 -8.423,102.231C-9.677,103.406 -11.055,104.484 -12.128,105.807C-13.013,106.897 -13.872,108.211 -14.152,109.55C-14.868,112.97 -14.254,116.332 -12.947,119.713M-4.143,103.764C-4.244,104.161 -4.306,104.373 -4.353,104.588C-4.864,106.918 -5.109,109.348 -5.942,111.556C-7.325,115.221 -9.066,118.752 -10.702,122.319C-11.007,122.983 -11.117,123.491 -10.568,124.067C-9.543,125.144 -8.566,126.266 -7.549,127.35C-7.429,127.477 -7.185,127.487 -6.869,127.596C-7.645,124.3 -7.904,121.117 -6.577,118.083C-5.588,115.821 -4.346,113.666 -3.153,111.498C-2.098,109.579 -0.956,107.709 0.167,105.785C-1.332,105.082 -2.666,104.457 -4.143,103.764M7.486,191.025C6.891,185.385 4.528,179.905 1.528,174.339C0.458,176.978 -0.531,179.388 -1.48,181.814C-1.566,182.032 -1.496,182.452 -1.333,182.607C1.661,185.496 4.681,188.357 7.486,191.025M-78.566,27.101C-78.724,27.143 -78.882,27.184 -79.04,27.226C-79.04,28.944 -79.004,30.664 -79.051,32.381C-79.086,33.674 -79.237,34.964 -79.318,36.256C-79.502,39.219 -79.774,42.187 -79.007,45.117C-78.194,48.22 -75.031,50.251 -71.816,49.624C-75.322,42.488 -77.168,34.863 -78.566,27.101M-82.737,1.237C-82.737,-1.389 -82.625,-3.874 -82.762,-6.346C-82.988,-10.405 -83.421,-14.453 -83.678,-18.511C-83.876,-21.632 -83.934,-24.763 -84.065,-27.888C-84.077,-28.165 -84.168,-28.439 -84.271,-28.963C-84.469,-28.529 -84.603,-28.342 -84.639,-28.139C-85.178,-25.114 -85.786,-22.098 -86.213,-19.057C-86.805,-14.843 -86.875,-10.607 -85.992,-6.418C-85.418,-3.691 -84.28,-1.177 -82.737,1.237M-11.825,145.119C-10.43,141.253 -8.346,138.081 -5.928,135.11C-5.407,134.47 -5.737,133.97 -6.237,133.541C-6.932,132.944 -7.655,132.382 -8.359,131.797C-9.834,130.571 -11.305,129.339 -12.798,128.093C-14.257,131.456 -14.023,139.289 -11.825,145.119M-63.479,56.712C-58.195,65.871 -43.237,77.859 -37.885,77.538C-38.017,77.394 -38.098,77.269 -38.211,77.188C-42.975,73.741 -47.45,69.955 -51.647,65.837C-53.277,64.238 -54.813,62.504 -56.619,61.131C-58.778,59.49 -61.181,58.171 -63.479,56.712M60.199,58.177C74.766,47.641 79.008,32.045 78.797,20.912C76.876,27.65 74.045,34.002 70.903,40.247C67.763,46.487 64.243,52.481 60.199,58.177M-2.568,130.914C-0.45,127.96 1.538,125.267 3.437,122.514C4.607,120.818 5.558,119.014 5.995,116.941C6.638,113.893 6.028,111.201 4.119,108.606C-1.415,115.059 -3.684,122.32 -2.568,130.914M-12.092,255.148C-9.545,254.811 -7.113,254.34 -4.662,254.201C-1.542,254.024 -1.569,254.126 -0.366,251.243C-0.076,250.548 -0.24,250.276 -0.777,249.855C-2.661,248.375 -4.57,246.911 -6.312,245.274C-7.802,243.874 -9.075,242.245 -10.495,240.66C-12.714,245.31 -12.536,250.221 -12.092,255.148M-60.321,8.776C-59.1,11.803 -57.868,14.819 -55.376,17.133C-52.579,19.73 -50.381,19.916 -47.352,18.152C-45.077,16.828 -44.489,14.79 -46.004,12.646C-46.996,11.244 -48.292,9.992 -49.652,8.929C-52.689,6.554 -57.005,6.548 -60.321,8.776M-4.197,139.873C-4.479,140.195 -4.642,140.316 -4.718,140.478C-6.298,143.812 -7.878,147.146 -9.423,150.496C-9.542,150.753 -9.507,151.186 -9.368,151.441C-7.438,154.975 -5.477,158.492 -3.444,162.157C-2.004,160.954 -0.727,159.94 0.477,158.843C0.779,158.568 1.034,158.011 0.99,157.619C0.296,151.471 -2.211,145.854 -4.197,139.873M9.968,89.466C10.184,89.6 10.275,89.698 10.377,89.711C10.643,89.744 10.913,89.754 11.18,89.746C15.878,89.605 20.181,88.017 24.124,85.662C27.34,83.741 30.302,81.375 33.277,79.076C34.826,77.879 36.159,76.402 37.589,75.051C35.129,75.398 32.813,75.956 30.506,76.543C25.361,77.853 20.291,79.335 15.896,82.502C13.358,84.331 11.174,86.43 9.968,89.466M3.531,223.14C3.191,223.454 2.893,223.682 2.653,223.959C-0.612,227.73 -3.853,231.522 -7.144,235.27C-7.691,235.894 -7.664,236.406 -7.23,236.975C-6.353,238.122 -5.526,239.325 -4.528,240.361C-2.639,242.323 -0.645,244.185 1.421,246.199C4.576,238.584 6.576,231.155 3.531,223.14M7.046,202.301C6.97,202.278 6.895,202.255 6.818,202.232C6.986,201.537 7.131,200.835 7.327,200.148C7.918,198.076 7.765,196.263 6.061,194.646C3.789,192.488 1.664,190.176 -0.509,187.915C-1.266,187.127 -1.975,186.294 -2.835,185.338C-3.429,187.096 -4.013,188.628 -4.445,190.202C-4.623,190.849 -4.661,191.649 -4.446,192.271C-2.061,199.181 0.377,206.073 2.822,212.963C3.49,214.846 4.229,216.703 4.947,218.599C11.564,213.47 13.305,202.934 8.399,198.133C7.949,199.522 7.498,200.911 7.046,202.301M-6.233,196.628C-6.379,196.768 -6.464,196.81 -6.477,196.867C-7.662,202.282 -8.918,207.683 -9.999,213.118C-10.995,218.132 -11.112,223.209 -10.348,228.27C-10.083,230.023 -9.501,231.727 -9.039,233.553C-7.207,231.496 -5.633,229.632 -3.953,227.868C-1.943,225.758 0.134,223.709 2.234,221.688C2.796,221.147 2.865,220.702 2.597,220.005C0.08,213.463 -2.41,206.911 -4.897,200.358C-5.361,199.138 -5.779,197.9 -6.233,196.628M-42.829,48.425C-42.754,51.835 -42.473,55.164 -41.376,58.347C-39.685,63.257 -37.817,67.906 -33.238,71.194C-26.509,76.025 -19.141,79.342 -11.371,81.939C-10.608,82.194 -9.782,82.257 -8.649,82.472C-9.154,81.468 -9.446,80.731 -9.867,80.076C-12.155,76.516 -15.259,74.019 -19.341,72.734C-22.309,71.801 -25.047,70.428 -27.348,68.244C-29.642,66.067 -31.072,63.343 -32.538,60.611C-33.978,57.927 -35.452,55.252 -37.084,52.682C-38.418,50.582 -40.362,49.134 -42.829,48.425M-4.899,273.802C-10.701,270.984 -12.573,265.586 -13.7,259.775C-17.052,260.716 -20.236,261.614 -23.423,262.502C-26.812,263.445 -30.137,264.542 -33.155,266.41C-33.615,266.695 -33.787,266.962 -33.705,267.598C-33.24,271.202 -32.373,274.696 -31.081,278.087C-29.884,281.229 -27.99,283.866 -25.286,285.878C-21.087,289.001 -16.305,289.392 -11.33,288.741C-5.956,288.039 -0.984,285.962 4.106,284.262C7.668,283.072 11.345,282.215 14.993,281.3C16.939,280.812 18.979,280.665 20.894,280.088C22.813,279.508 24.127,278.171 24.522,276.06C24.979,273.614 24.138,271.48 23.005,269.436C21.469,266.666 19.334,264.353 16.989,262.268C14.639,260.178 12.058,258.201 8.871,257.837C5.675,257.472 2.413,257.689 -0.821,257.683C-0.992,257.683 -1.26,257.95 -1.322,258.146C-2.119,260.631 -2.886,263.126 -3.586,265.38C-3.994,263.067 -3.29,260.537 -2.816,257.636C-5.893,258.168 -8.771,258.666 -11.771,259.186C-10.596,264.761 -10.085,270.365 -4.899,273.802M-70.284,-17.352C-67.391,-9.34 -64.497,-1.329 -61.634,6.596C-59.781,5.791 -58.255,4.91 -56.61,4.456C-52.436,3.302 -49.042,4.879 -46.343,8.008C-44.655,9.966 -43.631,12.234 -43.49,14.949C-43.29,18.804 -46.537,20.872 -49.605,21.129C-54.255,21.519 -56.972,19.07 -58.878,15.249C-59.814,13.372 -60.734,11.485 -61.675,9.577C-66.719,13.35 -69.128,18.471 -69.474,24.596C-69.608,26.978 -69.498,29.387 -69.307,31.769C-69.011,35.44 -66.987,38.14 -64.115,40.285C-61.048,42.576 -57.663,43.703 -53.775,43.631C-51.054,43.581 -48.318,43.972 -45.601,44.269C-44.882,44.347 -44.626,44.227 -44.525,43.538C-43.857,39.002 -42.623,34.616 -40.99,30.339C-40.428,28.867 -39.819,27.413 -39.094,26.014C-39.868,29.143 -40.74,32.252 -41.39,35.407C-42.039,38.558 -42.466,41.754 -42.927,44.546C-40.26,46.127 -37.868,47.377 -35.662,48.898C-32.951,50.767 -31.284,53.519 -29.958,56.49C-28.98,58.681 -28.03,60.891 -26.914,63.012C-25.258,66.16 -22.446,67.78 -19.081,68.634C-15.006,69.668 -11.346,71.48 -8.498,74.672C-7.798,75.457 -7.186,76.32 -6.451,77.252C-5.181,71.779 -2.316,67.243 0.681,62.779C2.569,59.968 5.321,58.357 8.531,57.6C13.632,56.397 18.785,55.409 23.887,54.209C28.532,53.117 32.945,51.395 36.627,48.264C38.075,47.033 39.228,45.456 40.255,44.324C39.955,45.68 38.938,47.172 37.706,48.526C34.033,52.564 29.327,54.543 24.068,55.638C19.165,56.659 14.304,57.92 9.479,59.272C5.086,60.502 2.254,63.672 0.129,67.548C-1.972,71.38 -3.64,75.381 -4.396,79.71C-4.521,80.428 -4.413,81.187 -4.413,81.926C-4.295,81.953 -4.177,81.981 -4.059,82.008C-3.807,81.414 -3.554,80.821 -3.304,80.227C-2.158,77.502 -0.841,74.898 1.367,72.827C3.85,70.498 7.826,70.216 10.509,72.265C12.31,73.641 12.97,76.374 12.102,78.915C11.91,79.478 11.673,80.026 11.457,80.582C13.516,79.384 15.534,78.109 17.64,77.002C22.864,74.257 28.509,72.593 34.076,70.729C37.582,69.555 41.083,68.354 44.522,67.004C45.405,66.658 46.134,65.778 46.788,65.018C49.948,61.349 53.104,57.675 56.173,53.93C58.804,50.719 61.462,47.513 63.844,44.119C67.3,39.193 69.815,33.741 71.96,28.132C74.589,21.258 76.576,14.19 77.88,6.95C78.126,5.587 77.727,4.09 77.528,2.669C76.769,-2.748 76.152,-8.165 77.243,-13.609C77.772,-16.248 78.725,-18.711 80.211,-20.984C80.638,-21.637 80.871,-22.524 80.899,-23.314C81.19,-31.481 79.968,-39.503 78.449,-47.49C77.932,-50.212 77.307,-52.915 76.811,-55.641C76.601,-56.796 76.518,-57.989 76.512,-59.165C76.484,-65.382 76.498,-71.599 76.502,-77.815C76.502,-78.031 76.547,-78.247 76.725,-78.472C76.771,-78.275 76.852,-78.08 76.856,-77.883C76.924,-74.743 76.904,-71.599 77.061,-68.464C77.368,-62.301 78.03,-56.209 79.924,-50.262C81.026,-46.803 81.583,-43.164 82.268,-39.583C82.875,-36.415 83.399,-33.225 83.809,-30.025C84.085,-27.873 84.192,-25.687 84.213,-23.515C84.267,-17.875 84.257,-12.233 84.225,-6.593C84.188,-0.309 83.124,5.832 81.369,11.843C80.748,13.969 80.714,16.026 80.859,18.217C81.093,21.75 80.98,25.31 80.914,28.857C80.83,33.359 79.844,37.691 78.182,41.869C76.558,45.952 74.147,49.553 71.337,52.902C66.053,59.203 59.621,64.115 52.688,68.451C51.704,69.066 51.086,70.244 50.237,71.1C46.957,74.408 43.646,77.688 40.355,80.987C37.105,84.246 33.485,87.053 29.556,89.415C26.75,91.101 23.771,92.505 20.835,93.968C19.06,94.853 17.214,95.596 15.412,96.428C13.998,97.081 12.574,97.503 10.983,97.148C10.406,97.019 9.775,97.127 9.374,97.127C8.667,99.852 7.996,102.436 7.288,105.166C8.159,106.389 9.368,107.829 10.288,109.435C11.988,112.404 11.837,115.555 10.783,118.713C9.585,122.301 7.335,125.229 4.914,128.047C3.502,129.69 2.078,131.322 0.702,132.909C3.145,134.944 5.477,136.958 7.886,138.875C11.252,141.552 12.721,146.965 11.025,151.014C9.854,153.81 8.297,156.378 6.193,158.595C5.933,158.868 5.711,159.319 5.719,159.683C5.801,163.821 4.57,167.642 3.019,171.401C2.865,171.773 2.911,172.36 3.104,172.721C5.767,177.7 7.759,182.907 8.594,188.519C8.695,189.193 8.894,189.898 8.793,190.549C8.5,192.429 9.356,193.745 10.474,195.146C12.751,197.998 14.204,201.231 14.244,204.992C14.288,209.129 12.672,212.638 10.195,215.801C8.926,217.422 7.536,218.955 6.12,220.45C5.504,221.1 5.923,221.627 6.023,222.23C6.375,224.362 6.879,226.488 7.012,228.637C7.293,233.189 6.064,237.551 4.932,241.898C4.531,243.438 3.873,244.913 3.267,246.392C3.03,246.968 2.956,247.298 3.583,247.704C7.768,250.418 11.88,253.246 16.1,255.903C18.841,257.63 21.675,259.227 24.556,260.709C28.499,262.739 30.657,266.088 32.096,270.104C33.117,272.956 34.082,273.449 37.12,273.583C39.511,273.688 41.889,274.074 44.274,274.322C46.275,274.529 48.275,274.831 50.281,274.889C55.308,275.034 60.164,276.078 64.974,277.432C68.213,278.343 71.395,279.387 74.176,281.375C75.296,282.176 76.182,283.125 76.511,284.514C76.867,286.013 76.434,287.57 75.054,288.252C73.06,289.238 70.994,290.198 68.849,290.734C64.987,291.7 61.064,292.47 57.129,293.076C54.424,293.493 51.652,293.454 48.917,293.693C45.737,293.971 42.564,294.331 39.388,294.649C39.046,294.684 38.699,294.678 38.354,294.684C31.807,294.802 25.259,294.925 18.711,295.035C14.115,295.112 9.515,295.321 4.924,295.196C0.279,295.068 -4.359,294.623 -8.996,294.269C-10.056,294.188 -11.101,293.909 -12.165,293.455C-11.272,293.278 -10.387,293.036 -9.486,292.94C-7.745,292.756 -5.997,292.567 -4.249,292.533C1.078,292.43 6.407,292.429 11.734,292.334C21.304,292.164 30.875,292.044 40.44,291.724C44.615,291.583 48.777,291.012 52.942,290.614C58.364,290.096 63.688,289.03 68.953,287.658C69.724,287.457 70.495,287.188 71.202,286.825C72.772,286.022 72.893,284.532 71.388,283.641C69.984,282.811 68.492,282.083 66.961,281.524C62.65,279.951 58.207,278.894 53.612,278.604C49.694,278.356 45.771,278.171 41.849,277.984C39.825,277.888 37.793,277.912 35.774,277.764C33.306,277.583 31.141,276.619 29.52,275.017C28.924,276.642 28.497,278.386 27.679,279.922C25.931,283.208 23.168,285.125 19.356,285.348C14.07,285.656 9.038,287.096 4.03,288.706C-0.027,290.011 -4.1,291.303 -8.235,292.322C-12.825,293.454 -17.484,293.64 -22.095,292.212C-26.699,290.786 -30.08,287.85 -32.508,283.761C-34.782,279.932 -35.945,275.73 -36.547,271.351C-36.653,270.58 -36.766,269.811 -36.903,268.845C-38.661,270.578 -40.375,272.098 -41.884,273.8C-43.978,276.164 -45.733,278.852 -47.962,281.07C-52.818,285.906 -58.402,289.726 -65.284,290.96C-68.025,291.452 -70.911,291.199 -73.729,291.168C-75.903,291.145 -78.087,291.038 -80.242,290.773C-81.536,290.613 -82.88,290.262 -84.033,289.669C-86.014,288.65 -86.334,286.253 -84.672,284.777C-83.375,283.626 -81.903,282.603 -80.361,281.809C-76.559,279.852 -72.679,278.042 -68.812,276.215C-68.144,275.9 -67.381,275.788 -66.663,275.582C-66.619,275.679 -66.575,275.775 -66.531,275.871C-66.895,276.07 -67.259,276.27 -67.625,276.467C-72.329,279.006 -77.046,281.522 -81.722,284.11C-82.388,284.48 -82.944,285.146 -83.394,285.783C-84.259,287.011 -83.949,287.968 -82.503,288.428C-81.497,288.747 -80.423,288.969 -79.372,289.004C-76.88,289.086 -74.373,289.185 -71.892,289.001C-64.439,288.451 -57.558,286.353 -52.166,280.847C-50.494,279.14 -49.139,277.127 -47.592,275.294C-46.681,274.215 -45.684,273.208 -44.711,272.182C-42.822,270.188 -40.924,268.204 -39.029,266.216C-39.002,266.189 -38.977,266.153 -38.943,266.14C-37.179,265.416 -36.954,264.045 -36.885,262.276C-36.804,260.219 -36.144,258.182 -35.713,256.141C-35.613,255.67 -35.423,255.218 -35.277,254.769C-46.086,250.728 -51.684,242.85 -52.843,231.636C-52.193,236.287 -50.387,240.477 -47.365,244.109C-44.012,248.14 -39.766,250.904 -34.82,252.585C-34.551,252.677 -33.983,252.297 -33.739,251.989C-32.608,250.569 -31.412,249.244 -29.71,248.494C-26.825,247.222 -23.098,249.218 -23.373,252.582C-23.485,253.961 -24.363,255.276 -25.857,255.459C-27.689,255.683 -29.563,255.663 -31.413,255.594C-32.079,255.568 -32.351,255.658 -32.596,256.272C-33.454,258.414 -33.923,260.606 -33.811,262.738C-27.272,260.324 -20.78,257.926 -14.243,255.512C-14.243,253.499 -14.251,251.214 -14.241,248.928C-14.226,245.526 -13.502,242.282 -12.146,239.16C-11.94,238.689 -11.943,237.962 -12.16,237.499C-13.622,234.376 -14.248,231.077 -14.445,227.666C-14.559,225.691 -14.83,223.718 -14.822,221.744C-14.813,219.233 -14.642,216.72 -14.45,214.215C-14.285,212.051 -14.069,209.886 -13.743,207.742C-12.82,201.672 -11.297,195.743 -9.205,189.975C-8.648,188.44 -9.276,187.188 -9.733,185.914C-11.665,180.533 -13.669,175.168 -14.374,169.457C-14.756,166.364 -15.154,163.216 -14.969,160.127C-14.776,156.896 -13.878,153.708 -13.329,150.495C-13.247,150.017 -13.262,149.446 -13.446,149.008C-15.561,143.949 -16.911,138.721 -16.525,133.21C-16.368,130.956 -15.657,128.743 -15.27,126.499C-15.183,125.997 -15.223,125.319 -15.498,124.931C-17.642,121.914 -19.041,118.58 -19.431,114.927C-19.786,111.592 -19.672,108.151 -17.691,105.3C-16.479,103.557 -14.629,102.257 -13.06,100.763C-12.896,100.607 -12.697,100.489 -12.452,100.307C-15.233,99.082 -17.822,97.623 -19.781,95.327C-20.886,94.031 -21.746,92.529 -22.764,91.155C-23.786,89.779 -24.845,88.429 -25.928,87.1C-27.248,85.481 -29.208,85.072 -31.07,84.532C-34.281,83.6 -37.58,82.925 -40.714,81.791C-45.015,80.233 -48.767,77.637 -52.352,74.818C-57.614,70.681 -62.096,65.814 -65.875,60.298C-66.78,58.978 -67.556,57.57 -68.458,56.247C-68.665,55.943 -69.168,55.618 -69.498,55.654C-72.271,55.956 -75.044,55.959 -77.795,55.565C-81.865,54.981 -85.068,51.681 -85.595,47.645C-86.133,43.518 -85.752,39.416 -85.152,35.331C-84.49,30.83 -83.657,26.35 -83.123,21.835C-82.748,18.655 -82.432,15.404 -82.704,12.239C-82.859,10.438 -83.946,8.488 -85.145,7.049C-88.326,3.228 -90.688,-0.913 -91.129,-5.911C-91.38,-8.754 -91.356,-11.634 -91.272,-14.491C-91.203,-16.882 -90.885,-19.268 -90.642,-21.652C-90.059,-27.377 -89.063,-32.999 -85.689,-37.852C-84.44,-39.649 -84.899,-41.58 -84.89,-43.469C-84.881,-45.332 -85.188,-47.196 -85.217,-49.061C-85.313,-55.309 -85.565,-61.567 -85.3,-67.801C-85.187,-70.464 -85.962,-72.753 -86.652,-75.137C-88.223,-80.556 -87.743,-85.802 -85.699,-91C-84.302,-94.555 -82.041,-97.492 -79.512,-100.282C-77.156,-102.883 -74.749,-105.454 -72.59,-108.214C-70.378,-111.042 -69.843,-114.468 -70.455,-117.914C-71.03,-121.152 -72.046,-124.312 -72.865,-127.508C-72.898,-127.64 -72.889,-127.783 -72.809,-127.944C-71.011,-124.61 -69.574,-121.152 -69.133,-117.356C-68.732,-113.904 -68.64,-110.461 -70.479,-107.326C-71.186,-106.119 -72.023,-104.956 -72.97,-103.929C-75.097,-101.619 -77.448,-99.509 -79.489,-97.129C-82.176,-93.997 -83.663,-90.243 -84.439,-86.2C-84.958,-83.498 -85.032,-80.799 -84.405,-78.07C-84.027,-79.741 -83.707,-81.427 -83.261,-83.08C-82.181,-87.081 -80.828,-90.977 -77.988,-94.126C-75.651,-96.718 -72.793,-98.294 -69.053,-98.287C-70.602,-97.638 -72.081,-97.18 -73.397,-96.435C-77.001,-94.396 -79.282,-91.179 -80.861,-87.448C-82.235,-84.2 -82.646,-80.708 -83.336,-77.277C-84.024,-73.857 -82.319,-71.223 -81.107,-68.396C-79.531,-64.718 -77.974,-61.06 -77.229,-57.08C-76.574,-53.574 -76.771,-50.146 -77.858,-46.829C-79.055,-43.177 -80.455,-39.579 -81.992,-36.056C-82.703,-34.427 -82.546,-32.85 -82.478,-31.244C-82.387,-29.083 -82.093,-26.933 -81.917,-24.775C-81.59,-20.749 -81.38,-16.711 -80.948,-12.697C-80.329,-6.955 -79.545,-1.231 -78.847,4.502C-78.383,8.312 -78.187,12.173 -77.442,15.926C-76.113,22.632 -74.51,29.287 -72.927,35.941C-71.795,40.7 -70.17,45.301 -67.923,49.66C-67.729,50.037 -67.241,50.427 -66.833,50.502C-62.583,51.284 -58.778,53.134 -55.259,55.516C-51.858,57.818 -48.643,60.395 -45.331,62.831C-44.509,63.435 -43.631,63.962 -42.513,64.701C-42.711,64.096 -42.81,63.76 -42.93,63.433C-44.638,58.782 -45.227,53.962 -45.063,49.037C-45.032,48.136 -45.154,47.676 -46.268,47.638C-48.694,47.556 -51.112,47.243 -53.536,47.074C-57.137,46.823 -60.479,45.688 -63.664,44.08C-65.189,43.309 -66.688,42.436 -68.06,41.423C-70.245,39.81 -71.324,37.471 -71.883,34.863C-73.142,28.99 -72.923,23.236 -70.706,17.585C-69.364,14.165 -67.089,11.479 -64.361,9.149C-62.548,7.601 -62.451,7.669 -63.304,5.543C-66.219,-1.72 -68.181,-9.27 -70.108,-16.831C-70.156,-17.02 -70.135,-17.227 -70.146,-17.425C-70.192,-17.4 -70.238,-17.376 -70.284,-17.352" fill="white" fill-rule="nonzero"/>
              </g>
            </g>
          </g>
        </g>
      </g>
    </g>
  </g>
</svg>
