<?xml version="1.0" encoding="UTF-8" standalone="yes"?>
<svg version="1.2" width="1000.000000pt" height="1000.000000pt" viewBox="0 0 1000.000000 1000.000000" preserveAspectRatio="xMidYMid meet" baseProfile="tiny-ps" xmlns="http://www.w3.org/2000/svg">
  <title>bimi-svg-tiny-12-ps</title>
  <g transform="translate(0.000000,1000.000000) scale(0.100000,-0.100000)" fill="#000000" stroke="none">
    <path d="M3675 9035 c21 -65 45 -186 45 -226 0 -65 -36 -128 -139 -242 -106&#xA;-119 -150 -189 -173 -276 -22 -87 -22 -160 1 -257 16 -65 20 -130 25 -378 l5&#xA;-298 -34 -67 c-19 -36 -41 -93 -50 -125 -39 -156 -45 -469 -10 -551 9 -21 44&#xA;-79 76 -128 l59 -89 0 -89 c0 -48 -12 -164 -26 -256 -27 -173 -35 -321 -21&#xA;-385 5 -22 23 -52 48 -76 35 -35 49 -42 110 -52 39 -7 88 -10 108 -6 20 3 41&#xA;2 46 -2 6 -4 32 -40 60 -81 102 -153 293 -326 430 -391 33 -15 112 -42 175&#xA;-60 63 -18 123 -36 132 -41 10 -5 52 -55 94 -110 67 -89 127 -143 178 -162 6&#xA;-3 -12 -29 -40 -58 -61 -64 -70 -79 -79 -140 -9 -63 9 -152 48 -232 l33 -68&#xA;-15 -85 c-17 -99 -8 -195 30 -304 22 -63 22 -65 5 -166 -9 -56 -16 -121 -16&#xA;-145 0 -87 30 -236 70 -354 22 -66 41 -131 42 -145 0 -14 -11 -63 -26 -110&#xA;-84 -275 -104 -611 -46 -786 20 -61 20 -61 0 -119 -12 -35 -22 -100 -26 -165&#xA;l-7 -108 -171 -63 c-94 -34 -177 -64 -183 -67 -17 -5 -16 41 1 88 12 34 14 35&#xA;80 42 100 10 133 51 86 111 -39 50 -90 44 -159 -18 l-40 -37 -68 34 c-85 42&#xA;-180 130 -221 205 -17 32 -32 51 -32 43 0 -23 54 -123 90 -169 36 -45 126&#xA;-111 183 -135 30 -12 37 -20 32 -35 -3 -10 -12 -53 -19 -95 l-13 -76 -96 -98&#xA;c-52 -53 -116 -122 -141 -153 -124 -154 -255 -212 -486 -213 -127 -1 -170 9&#xA;-170 38 0 23 53 61 177 127 65 34 127 69 138 77 19 13 19 14 -5 7 -52 -16&#xA;-286 -137 -313 -163 -21 -20 -27 -34 -25 -57 5 -48 50 -64 209 -71 147 -7 229&#xA;6 320 52 68 34 179 126 237 197 28 34 75 86 106 116 52 52 55 53 60 30 19 -96&#xA;39 -169 60 -213 29 -64 95 -139 151 -171 57 -34 173 -58 244 -50 36 3 49 2 36&#xA;-4 -17 -7 -14 -9 20 -15 171 -27 843 -23 1162 8 281 27 483 84 497 140 27 107&#xA;-180 189 -574 227 -138 13 -223 26 -238 35 -12 8 -36 43 -52 77 -41 87 -70&#xA;114 -206 194 -214 127 -337 212 -331 231 3 9 17 58 32 107 32 109 42 229 25&#xA;318 l-12 65 61 72 c122 145 133 265 38 411 -25 39 -37 70 -42 112 -9 82 -40&#xA;188 -79 272 l-33 71 19 54 c10 30 24 87 30 125 8 52 20 82 44 116 114 157 99&#xA;262 -55 389 l-79 64 63 76 c157 189 180 291 94 414 l-32 44 20 74 20 73 53 7&#xA;c65 8 287 114 399 191 41 29 148 124 237 212 94 93 199 186 252 223 155 109&#xA;293 259 358 391 56 114 65 166 74 406 7 176 13 237 30 305 20 76 23 117 27&#xA;376 5 279 4 297 -22 450 -14 87 -39 209 -55 269 -31 120 -47 226 -60 417 -7&#xA;108 -8 97 -5 -92 3 -191 6 -232 33 -370 32 -164 52 -323 52 -421 0 -44 -7 -73&#xA;-25 -109 -55 -108 -66 -208 -44 -411 11 -99 10 -114 -11 -205 -31 -137 -102&#xA;-339 -161 -461 -27 -57 -83 -148 -127 -206 -81 -107 -274 -338 -310 -370 -11&#xA;-10 -112 -50 -224 -89 -204 -70 -306 -113 -385 -163 -24 -14 -43 -25 -43 -23&#xA;0 2 4 19 10 38 32 113 -95 185 -198 111 -29 -22 -51 -52 -78 -107 -21 -42 -40&#xA;-71 -42 -65 -14 41 65 244 127 326 53 71 108 96 311 145 211 51 298 89 363&#xA;159 26 28 47 55 47 61 0 6 -17 -7 -37 -28 -77 -80 -155 -112 -414 -170 -97&#xA;-22 -195 -50 -217 -61 -62 -31 -154 -165 -197 -286 -10 -27 -20 -52 -21 -53&#xA;-1 -2 -19 15 -40 38 -46 51 -100 83 -194 115 -110 37 -132 59 -195 190 -65&#xA;137 -94 171 -190 227 -54 31 -75 49 -75 63 0 29 26 172 44 240 8 33 14 61 12&#xA;63 -7 7 -48 -113 -68 -198 -11 -47 -22 -91 -24 -99 -7 -21 -232 -5 -303 21&#xA;-68 26 -145 99 -160 154 -17 59 -14 222 5 284 17 58 55 119 101 162 l28 27 38&#xA;-72 c51 -101 92 -138 156 -145 156 -15 205 131 87 256 -17 19 -43 40 -58 48&#xA;-39 20 -118 17 -173 -7 -25 -11 -48 -19 -49 -17 -2 1 -32 83 -67 181 -35 98&#xA;-65 174 -66 170 -4 -11 58 -219 86 -293 11 -30 21 -61 21 -69 0 -8 -24 -40&#xA;-54 -71 -98 -102 -131 -198 -124 -359 8 -165 38 -215 169 -281 74 -38 149 -57&#xA;260 -65 l87 -7 7 -90 c6 -82 22 -162 41 -212 6 -17 5 -17 -17 -5 -13 7 -64 43&#xA;-114 80 -125 94 -199 136 -277 160 -65 20 -69 23 -89 67 -58 131 -146 473&#xA;-174 681 -45 328 -85 730 -85 853 0 42 9 80 35 144 52 129 65 180 65 259 0 82&#xA;-15 138 -76 287 -24 59 -44 123 -44 142 0 58 29 178 59 241 36 78 72 120 135&#xA;155 57 33 37 41 -24 10 -75 -38 -134 -132 -169 -272 -16 -63 -20 -69 -26 -46&#xA;-11 42 13 167 44 234 19 40 58 92 120 157 120 128 135 159 134 262 0 54 -8&#xA;101 -23 145 -20 59 -61 145 -45 95z m-176 -1235 c20 -52 31 -97 31 -131 0 -55&#xA;-39 -219 -52 -219 -4 0 -8 33 -8 73 0 39 -3 136 -7 215 -3 78 -3 142 0 142 3&#xA;0 19 -36 36 -80z m-35 -792 c3 -73 8 -198 11 -278 l6 -145 -21 37 c-31 57 -50&#xA;144 -50 233 0 81 29 285 41 285 3 0 9 -60 13 -132z m3140 -193 c-17 -216 -16&#xA;-209 -23 -150 -11 91 15 342 34 323 2 -1 -3 -79 -11 -173z m-2497 -381 c47&#xA;-27 93 -87 93 -120 0 -50 -91 -93 -147 -69 -39 17 -96 84 -121 145 l-20 48 26&#xA;11 c66 25 105 21 169 -15z m2459 -384 c-19 -105 -60 -217 -113 -309 -39 -66&#xA;-144 -186 -195 -223 -24 -17 -18 -3 37 84 81 126 214 393 252 506 34 101 42&#xA;77 19 -58z m-2977 -90 c19 -88 56 -199 96 -294 8 -17 5 -19 -30 -13 -52 9 -92&#xA;49 -103 106 -11 50 -4 328 7 314 4 -4 18 -55 30 -113z m699 -304 c41 -21 63&#xA;-50 137 -181 101 -179 127 -205 270 -266 86 -36 132 -71 177 -133 36 -50 35&#xA;-56 -4 -46 -161 39 -427 182 -496 266 -34 41 -70 112 -97 190 -17 52 -33 184&#xA;-21 184 4 0 19 -6 34 -14z m-358 -190 c25 -16 97 -77 160 -136 63 -58 144&#xA;-128 179 -155 36 -27 59 -51 52 -53 -22 -7 -136 58 -220 124 -85 68 -194 182&#xA;-225 235 -21 35 -19 35 54 -15z m1290 -338 c0 -23 -121 -100 -136 -86 -14 14&#xA;62 109 96 121 14 4 40 -18 40 -35z m544 11 c-40 -45 -222 -173 -290 -205 -67&#xA;-31 -187 -59 -205 -48 -29 18 78 127 168 172 84 42 266 99 327 101 19 1 19 1&#xA;0 -20z m-554 -178 c-24 -34 -34 -37 -70 -16 -27 15 -29 13 45 39 22 7 42 12&#xA;44 10 2 -1 -7 -17 -19 -33z m-300 -41 c0 -25 -15 -25 -60 0 l-35 19 48 1 c40&#xA;0 47 -3 47 -20z m199 -46 c2 -2 -16 -4 -41 -4 -40 0 -46 2 -41 19 5 18 7 18&#xA;41 4 21 -8 39 -17 41 -19z m6 -176 c-10 -44 -10 -44 -51 -25 -40 19 -37 33 9&#xA;46 48 14 49 13 42 -21z m-199 -80 c-20 -99 -33 -144 -58 -215 -17 -46 -34 -83&#xA;-38 -83 -9 0 -30 87 -30 127 0 51 25 106 67 149 47 49 66 56 59 22z m121 -26&#xA;l32 -17 -65 -119 c-69 -126 -85 -178 -76 -254 l5 -47 -32 29 c-17 16 -33 38&#xA;-36 47 -4 10 16 67 43 131 28 62 55 138 62 168 20 93 16 89 67 62z m144 -145&#xA;c20 -74 -25 -176 -141 -325 l-18 -22 -7 38 c-14 86 28 237 92 330 34 50 38 53&#xA;50 36 7 -10 18 -36 24 -57z m-291 -354 c32 -27 61 -53 64 -59 2 -6 -16 -42&#xA;-41 -79 -24 -37 -49 -80 -55 -97 -6 -16 -14 -26 -18 -21 -31 35 -43 303 -13&#xA;303 3 0 31 -21 63 -47z m250 -207 c55 -49 69 -72 70 -113 0 -36 -27 -113 -40&#xA;-113 -5 0 -11 17 -15 38 -3 21 -25 87 -49 145 -45 113 -45 113 34 43z m-114&#xA;-76 c19 -56 42 -132 50 -169 l14 -66 -41 -39 c-40 -38 -42 -39 -56 -20 -27 37&#xA;-103 182 -103 197 0 17 91 209 97 204 1 -2 19 -50 39 -107z m-108 -262 c23&#xA;-37 42 -72 42 -78 0 -5 -10 -20 -22 -32 -13 -12 -35 -39 -49 -60 l-26 -39 -6&#xA;53 c-13 101 -4 251 13 231 4 -4 25 -38 48 -75z m156 -123 c-6 -23 -8 -25 -16&#xA;-11 -6 11 -6 22 3 32 16 20 21 12 13 -21z m-40 -67 c7 -20 3 -42 -20 -97 -16&#xA;-39 -33 -71 -37 -71 -4 0 -15 17 -23 37 -18 43 -9 92 27 137 25 31 40 30 53&#xA;-6z m110 -192 c35 -82 72 -204 64 -212 -2 -2 -42 32 -88 75 l-84 78 28 71 c15&#xA;40 31 72 36 72 4 0 24 -38 44 -84z m-214 -16 c18 -25 19 -33 9 -52 -11 -21&#xA;-13 -20 -25 22 -21 71 -18 77 16 30z m193 -217 c81 -85 87 -94 88 -135 0 -39&#xA;1 -40 10 -18 l10 25 22 -35 c31 -50 31 -175 -1 -241 -31 -62 -78 -117 -90&#xA;-104 -5 6 -49 122 -97 258 l-88 249 18 59 c14 47 21 57 30 47 6 -7 50 -54 98&#xA;-105z m-101 -295 c39 -101 77 -202 85 -225 l15 -43 -114 -120 -113 -119 -14&#xA;47 c-8 27 -14 99 -15 172 -1 111 4 145 38 302 22 98 42 176 44 173 3 -3 36&#xA;-87 74 -187z m126 -357 c16 -51 14 -173 -2 -241 -20 -79 -47 -150 -56 -150&#xA;-10 0 -147 146 -161 171 -8 15 9 39 93 138 57 67 106 121 109 121 3 0 11 -17&#xA;17 -39z m-236 -340 c18 -21 59 -60 91 -85 58 -48 67 -68 44 -101 -17 -22 -196&#xA;-49 -210 -31 -21 27 9 256 33 256 5 0 23 -17 42 -39z m-362 -166 c10 -12 8&#xA;-16 -15 -25 -14 -5 -36 -10 -48 -10 -21 1 -21 2 6 25 33 29 40 30 57 10z m585&#xA;-15 l30 -20 -47 0 c-41 0 -46 2 -41 20 7 25 20 25 58 0z m-129 -162 l-6 -63&#xA;22 63 22 62 106 0 c93 0 112 -3 157 -25 63 -32 172 -143 207 -212 29 -59 33&#xA;-101 11 -142 -17 -34 -41 -44 -169 -72 -55 -11 -174 -45 -265 -74 -250 -80&#xA;-358 -88 -468 -33 -77 38 -128 106 -162 211 -15 51 -31 111 -35 134 l-6 43 49&#xA;25 c47 23 302 105 329 105 6 0 12 -7 12 -15 0 -29 40 -128 66 -166 14 -21 37&#xA;-46 51 -55 24 -15 24 -14 -5 22 -28 36 -67 143 -74 204 -3 23 1 26 57 36 111&#xA;21 107 23 101 -48z m856 -322 c303 -15 433 -37 545 -95 89 -45 64 -74 -97&#xA;-110 -213 -47 -466 -63 -1183 -74 l-248 -4 83 22 c46 12 145 41 221 63 76 23&#xA;174 46 218 52 129 16 180 52 215 152 l15 45 44 -22 c37 -19 68 -24 187 -29z"/>
  </g>
</svg>